<mxfile host="app.diagrams.net" modified="2022-08-21T06:14:34.090Z" agent="5.0 (Windows NT 6.1; Win64; x64) AppleWebKit/537.36 (KHTML, like Gecko) Chrome/104.0.0.0 Safari/537.36" etag="mv7BzZCtDTJR34S4Sc_1" version="20.2.5" type="github">
  <diagram id="GBTnySst6NLmsGVm9jS0" name="Страница 1">
    <mxGraphModel dx="1354" dy="726" grid="1" gridSize="10" guides="1" tooltips="1" connect="1" arrows="1" fold="1" page="1" pageScale="1" pageWidth="827" pageHeight="1169" math="0" shadow="0">
      <root>
        <mxCell id="0" />
        <mxCell id="1" parent="0" />
        <mxCell id="wxp3gdqMQNh9vdlh4Xrz-1" value="Controller" style="rounded=0;whiteSpace=wrap;html=1;" parent="1" vertex="1">
          <mxGeometry x="360" y="750" width="80" height="40" as="geometry" />
        </mxCell>
        <mxCell id="wxp3gdqMQNh9vdlh4Xrz-16" value="Model" style="swimlane;fontStyle=0;childLayout=stackLayout;horizontal=1;startSize=26;fillColor=none;horizontalStack=0;resizeParent=1;resizeParentMax=0;resizeLast=0;collapsible=1;marginBottom=0;" parent="1" vertex="1">
          <mxGeometry x="300" y="300" width="200" height="390" as="geometry" />
        </mxCell>
        <mxCell id="wxp3gdqMQNh9vdlh4Xrz-17" value="start: BigNumber" style="text;strokeColor=none;fillColor=none;align=left;verticalAlign=top;spacingLeft=4;spacingRight=4;overflow=hidden;rotatable=0;points=[[0,0.5],[1,0.5]];portConstraint=eastwest;" parent="wxp3gdqMQNh9vdlh4Xrz-16" vertex="1">
          <mxGeometry y="26" width="200" height="26" as="geometry" />
        </mxCell>
        <mxCell id="wxp3gdqMQNh9vdlh4Xrz-21" value="end: BigNumber" style="text;strokeColor=none;fillColor=none;align=left;verticalAlign=top;spacingLeft=4;spacingRight=4;overflow=hidden;rotatable=0;points=[[0,0.5],[1,0.5]];portConstraint=eastwest;" parent="wxp3gdqMQNh9vdlh4Xrz-16" vertex="1">
          <mxGeometry y="52" width="200" height="26" as="geometry" />
        </mxCell>
        <mxCell id="wxp3gdqMQNh9vdlh4Xrz-18" value="step: BigNumber" style="text;strokeColor=none;fillColor=none;align=left;verticalAlign=top;spacingLeft=4;spacingRight=4;overflow=hidden;rotatable=0;points=[[0,0.5],[1,0.5]];portConstraint=eastwest;" parent="wxp3gdqMQNh9vdlh4Xrz-16" vertex="1">
          <mxGeometry y="78" width="200" height="26" as="geometry" />
        </mxCell>
        <mxCell id="9HVPE3XCvP6rxmOitzGl-9" value="scaleStep: BigNumber" style="text;strokeColor=none;fillColor=none;align=left;verticalAlign=top;spacingLeft=4;spacingRight=4;overflow=hidden;rotatable=0;points=[[0,0.5],[1,0.5]];portConstraint=eastwest;" vertex="1" parent="wxp3gdqMQNh9vdlh4Xrz-16">
          <mxGeometry y="104" width="200" height="26" as="geometry" />
        </mxCell>
        <mxCell id="wxp3gdqMQNh9vdlh4Xrz-22" value="from: BigNumber" style="text;strokeColor=none;fillColor=none;align=left;verticalAlign=top;spacingLeft=4;spacingRight=4;overflow=hidden;rotatable=0;points=[[0,0.5],[1,0.5]];portConstraint=eastwest;" parent="wxp3gdqMQNh9vdlh4Xrz-16" vertex="1">
          <mxGeometry y="130" width="200" height="26" as="geometry" />
        </mxCell>
        <mxCell id="wxp3gdqMQNh9vdlh4Xrz-19" value="to: BigNumber" style="text;strokeColor=none;fillColor=none;align=left;verticalAlign=top;spacingLeft=4;spacingRight=4;overflow=hidden;rotatable=0;points=[[0,0.5],[1,0.5]];portConstraint=eastwest;" parent="wxp3gdqMQNh9vdlh4Xrz-16" vertex="1">
          <mxGeometry y="156" width="200" height="26" as="geometry" />
        </mxCell>
        <mxCell id="wxp3gdqMQNh9vdlh4Xrz-20" value="hasTwoValues: boolean" style="text;strokeColor=none;fillColor=none;align=left;verticalAlign=top;spacingLeft=4;spacingRight=4;overflow=hidden;rotatable=0;points=[[0,0.5],[1,0.5]];portConstraint=eastwest;" parent="wxp3gdqMQNh9vdlh4Xrz-16" vertex="1">
          <mxGeometry y="182" width="200" height="26" as="geometry" />
        </mxCell>
        <mxCell id="9HVPE3XCvP6rxmOitzGl-4" value="isVertical: boolean" style="text;strokeColor=none;fillColor=none;align=left;verticalAlign=top;spacingLeft=4;spacingRight=4;overflow=hidden;rotatable=0;points=[[0,0.5],[1,0.5]];portConstraint=eastwest;" vertex="1" parent="wxp3gdqMQNh9vdlh4Xrz-16">
          <mxGeometry y="208" width="200" height="26" as="geometry" />
        </mxCell>
        <mxCell id="9HVPE3XCvP6rxmOitzGl-5" value="scaleHidden: boolean" style="text;strokeColor=none;fillColor=none;align=left;verticalAlign=top;spacingLeft=4;spacingRight=4;overflow=hidden;rotatable=0;points=[[0,0.5],[1,0.5]];portConstraint=eastwest;" vertex="1" parent="wxp3gdqMQNh9vdlh4Xrz-16">
          <mxGeometry y="234" width="200" height="26" as="geometry" />
        </mxCell>
        <mxCell id="9HVPE3XCvP6rxmOitzGl-8" value="thumbsAreRestricted: boolean" style="text;strokeColor=none;fillColor=none;align=left;verticalAlign=top;spacingLeft=4;spacingRight=4;overflow=hidden;rotatable=0;points=[[0,0.5],[1,0.5]];portConstraint=eastwest;" vertex="1" parent="wxp3gdqMQNh9vdlh4Xrz-16">
          <mxGeometry y="260" width="200" height="26" as="geometry" />
        </mxCell>
        <mxCell id="9HVPE3XCvP6rxmOitzGl-7" value="tooltipHidden: boolean" style="text;strokeColor=none;fillColor=none;align=left;verticalAlign=top;spacingLeft=4;spacingRight=4;overflow=hidden;rotatable=0;points=[[0,0.5],[1,0.5]];portConstraint=eastwest;" vertex="1" parent="wxp3gdqMQNh9vdlh4Xrz-16">
          <mxGeometry y="286" width="200" height="26" as="geometry" />
        </mxCell>
        <mxCell id="9HVPE3XCvP6rxmOitzGl-6" value="progressBarHidden: boolean" style="text;strokeColor=none;fillColor=none;align=left;verticalAlign=top;spacingLeft=4;spacingRight=4;overflow=hidden;rotatable=0;points=[[0,0.5],[1,0.5]];portConstraint=eastwest;" vertex="1" parent="wxp3gdqMQNh9vdlh4Xrz-16">
          <mxGeometry y="312" width="200" height="26" as="geometry" />
        </mxCell>
        <mxCell id="9HVPE3XCvP6rxmOitzGl-10" value="units: string" style="text;strokeColor=none;fillColor=none;align=left;verticalAlign=top;spacingLeft=4;spacingRight=4;overflow=hidden;rotatable=0;points=[[0,0.5],[1,0.5]];portConstraint=eastwest;" vertex="1" parent="wxp3gdqMQNh9vdlh4Xrz-16">
          <mxGeometry y="338" width="200" height="26" as="geometry" />
        </mxCell>
        <mxCell id="9HVPE3XCvP6rxmOitzGl-14" value="name: string" style="text;strokeColor=none;fillColor=none;align=left;verticalAlign=top;spacingLeft=4;spacingRight=4;overflow=hidden;rotatable=0;points=[[0,0.5],[1,0.5]];portConstraint=eastwest;" vertex="1" parent="wxp3gdqMQNh9vdlh4Xrz-16">
          <mxGeometry y="364" width="200" height="26" as="geometry" />
        </mxCell>
        <mxCell id="wxp3gdqMQNh9vdlh4Xrz-31" value="" style="endArrow=diamondThin;endFill=0;endSize=24;html=1;rounded=0;" parent="1" target="wxp3gdqMQNh9vdlh4Xrz-1" edge="1">
          <mxGeometry width="160" relative="1" as="geometry">
            <mxPoint x="400" y="860" as="sourcePoint" />
            <mxPoint x="400" y="810" as="targetPoint" />
          </mxGeometry>
        </mxCell>
        <mxCell id="wxp3gdqMQNh9vdlh4Xrz-36" value="Thumb" style="html=1;" parent="1" vertex="1">
          <mxGeometry x="345" y="960" width="110" height="50" as="geometry" />
        </mxCell>
        <mxCell id="wxp3gdqMQNh9vdlh4Xrz-37" value="" style="endArrow=diamondThin;endFill=1;endSize=24;html=1;rounded=0;" parent="1" source="wxp3gdqMQNh9vdlh4Xrz-36" target="9HVPE3XCvP6rxmOitzGl-11" edge="1">
          <mxGeometry width="160" relative="1" as="geometry">
            <mxPoint x="280" y="860" as="sourcePoint" />
            <mxPoint x="400" y="890" as="targetPoint" />
          </mxGeometry>
        </mxCell>
        <mxCell id="wxp3gdqMQNh9vdlh4Xrz-38" value="Scale" style="html=1;" parent="1" vertex="1">
          <mxGeometry x="170" y="860" width="110" height="50" as="geometry" />
        </mxCell>
        <mxCell id="wxp3gdqMQNh9vdlh4Xrz-39" value="" style="endArrow=diamondThin;endFill=1;endSize=24;html=1;rounded=0;" parent="1" source="wxp3gdqMQNh9vdlh4Xrz-38" target="9HVPE3XCvP6rxmOitzGl-11" edge="1">
          <mxGeometry width="160" relative="1" as="geometry">
            <mxPoint x="190" y="860" as="sourcePoint" />
            <mxPoint x="365" y="881.5116279069769" as="targetPoint" />
          </mxGeometry>
        </mxCell>
        <mxCell id="wxp3gdqMQNh9vdlh4Xrz-40" value="ProgressBar" style="html=1;" parent="1" vertex="1">
          <mxGeometry x="520" y="830" width="110" height="50" as="geometry" />
        </mxCell>
        <mxCell id="wxp3gdqMQNh9vdlh4Xrz-41" value="Bar" style="html=1;" parent="1" vertex="1">
          <mxGeometry x="520" y="920" width="110" height="50" as="geometry" />
        </mxCell>
        <mxCell id="wxp3gdqMQNh9vdlh4Xrz-42" value="" style="endArrow=diamondThin;endFill=1;endSize=24;html=1;rounded=0;exitX=0;exitY=0.4;exitDx=0;exitDy=0;exitPerimeter=0;" parent="1" source="wxp3gdqMQNh9vdlh4Xrz-41" target="9HVPE3XCvP6rxmOitzGl-11" edge="1">
          <mxGeometry width="160" relative="1" as="geometry">
            <mxPoint x="560" y="780" as="sourcePoint" />
            <mxPoint x="485.5100000000002" y="898.0219999999999" as="targetPoint" />
          </mxGeometry>
        </mxCell>
        <mxCell id="wxp3gdqMQNh9vdlh4Xrz-43" value="" style="endArrow=diamondThin;endFill=1;endSize=24;html=1;rounded=0;" parent="1" target="9HVPE3XCvP6rxmOitzGl-11" edge="1" source="wxp3gdqMQNh9vdlh4Xrz-40">
          <mxGeometry width="160" relative="1" as="geometry">
            <mxPoint x="560" y="870" as="sourcePoint" />
            <mxPoint x="435.21000000000004" y="864.6200000000001" as="targetPoint" />
          </mxGeometry>
        </mxCell>
        <mxCell id="wxp3gdqMQNh9vdlh4Xrz-44" value="class toxin-slider&amp;nbsp;" style="shape=umlFrame;whiteSpace=wrap;html=1;width=160;height=30;" parent="1" vertex="1">
          <mxGeometry x="120" y="280" width="560" height="760" as="geometry" />
        </mxCell>
        <mxCell id="9HVPE3XCvP6rxmOitzGl-11" value="View" style="html=1;" vertex="1" parent="1">
          <mxGeometry x="345" y="860" width="110" height="50" as="geometry" />
        </mxCell>
        <mxCell id="9HVPE3XCvP6rxmOitzGl-13" value="" style="endArrow=diamondThin;endFill=0;endSize=24;html=1;rounded=0;" edge="1" parent="1" source="wxp3gdqMQNh9vdlh4Xrz-16" target="wxp3gdqMQNh9vdlh4Xrz-1">
          <mxGeometry width="160" relative="1" as="geometry">
            <mxPoint x="400" y="690" as="sourcePoint" />
            <mxPoint x="460" y="700" as="targetPoint" />
          </mxGeometry>
        </mxCell>
      </root>
    </mxGraphModel>
  </diagram>
</mxfile>
